<mxfile host="65bd71144e">
    <diagram name="Page-1" id="lMXFKlL8Bwvw9kg3FBqw">
        <mxGraphModel dx="1167" dy="2124" grid="1" gridSize="10" guides="1" tooltips="1" connect="1" arrows="1" fold="1" page="1" pageScale="1" pageWidth="850" pageHeight="1100" background="none" math="0" shadow="0">
            <root>
                <mxCell id="0"/>
                <mxCell id="1" style="" parent="0"/>
                <mxCell id="GoKNf1hH-Z8f_osksqzi-78" value="" style="rounded=1;whiteSpace=wrap;html=1;fontFamily=Helvetica;fontSize=11;fontColor=#000000;labelBackgroundColor=default;resizable=1;fillColor=#FFFFFF;opacity=90;strokeColor=#000000;strokeWidth=4;align=center;verticalAlign=middle;arcSize=12;movable=1;rotatable=1;deletable=1;editable=1;connectable=1;shadow=1;" parent="1" vertex="1">
                    <mxGeometry x="130" y="-800" width="880" height="480" as="geometry"/>
                </mxCell>
                <mxCell id="3" value="" style="rounded=1;whiteSpace=wrap;html=1;shadow=1;opacity=90;fontSize=20;verticalAlign=top;fillColor=#b0e3e6;strokeColor=#0e8088;spacing=0;arcSize=9;strokeWidth=5;spacingTop=10;spacingLeft=10;spacingRight=10;" vertex="1" parent="1">
                    <mxGeometry x="180" y="-750" width="760" height="390" as="geometry"/>
                </mxCell>
                <mxCell id="em2XX1OPzqwU3cxCynbA-2" value="" style="group" parent="1" vertex="1" connectable="0">
                    <mxGeometry x="140" y="-800" width="840" height="411" as="geometry"/>
                </mxCell>
                <mxCell id="em2XX1OPzqwU3cxCynbA-4" style="edgeStyle=orthogonalEdgeStyle;rounded=1;orthogonalLoop=1;jettySize=auto;html=1;exitX=1;exitY=0;exitDx=0;exitDy=42.5;exitPerimeter=0;opacity=70;strokeColor=#000000;strokeWidth=4;align=center;verticalAlign=middle;arcSize=12;fontFamily=Helvetica;fontSize=11;fontColor=#000000;labelBackgroundColor=default;resizable=1;startArrow=none;endArrow=classic;endFill=1;curved=0;" parent="em2XX1OPzqwU3cxCynbA-2" source="GoKNf1hH-Z8f_osksqzi-56" edge="1">
                    <mxGeometry relative="1" as="geometry">
                        <mxPoint x="840" y="348" as="targetPoint"/>
                    </mxGeometry>
                </mxCell>
                <mxCell id="GoKNf1hH-Z8f_osksqzi-56" value="Queue" style="html=1;overflow=block;blockSpacing=1;whiteSpace=wrap;shape=cylinder3;direction=south;size=10;anchorPointDirection=0;boundedLbl=1;fontSize=18;spacing=9;strokeColor=#000000;rounded=1;absoluteArcSize=1;arcSize=9;fillColor=#FFFFFF;strokeWidth=2;lucidId=YW3Kj~0P2WnY;fontColor=#000000;movable=1;resizable=1;rotatable=1;deletable=1;editable=1;locked=0;connectable=1;align=center;verticalAlign=middle;fontFamily=Helvetica;fontStyle=1;" parent="em2XX1OPzqwU3cxCynbA-2" vertex="1">
                    <mxGeometry x="620" y="305.88" width="150" height="90" as="geometry"/>
                </mxCell>
                <mxCell id="GoKNf1hH-Z8f_osksqzi-57" value="Process" style="html=1;overflow=block;blockSpacing=1;whiteSpace=wrap;fontSize=18;spacing=9;rounded=1;absoluteArcSize=1;arcSize=9;strokeWidth=2;lucidId=YW3KcYp1MhGA;movable=1;resizable=1;rotatable=1;deletable=1;editable=1;locked=0;connectable=1;fillColor=#FFFFFF;fontColor=#000000;strokeColor=#000000;align=center;verticalAlign=middle;fontFamily=Helvetica;fontStyle=1;" parent="em2XX1OPzqwU3cxCynbA-2" vertex="1">
                    <mxGeometry x="90" y="215.88" width="120" height="90" as="geometry"/>
                </mxCell>
                <mxCell id="GoKNf1hH-Z8f_osksqzi-58" value="" style="html=1;jettySize=18;whiteSpace=wrap;fontSize=11;strokeColor=#000000;strokeOpacity=100;strokeWidth=4;rounded=1;arcSize=12;edgeStyle=orthogonalEdgeStyle;startArrow=none;endArrow=classic;endFill=1;entryX=0.004;entryY=0.578;entryPerimeter=0;lucidId=YW3KZ0~PzFLt;movable=1;resizable=1;rotatable=1;deletable=1;editable=1;locked=0;connectable=1;entryDx=0;entryDy=0;opacity=70;align=center;verticalAlign=middle;fontFamily=Helvetica;fontColor=#000000;labelBackgroundColor=default;curved=1;" parent="em2XX1OPzqwU3cxCynbA-2" edge="1" target="GoKNf1hH-Z8f_osksqzi-60">
                    <mxGeometry width="100" height="100" relative="1" as="geometry">
                        <Array as="points">
                            <mxPoint x="290" y="240"/>
                            <mxPoint x="290" y="165"/>
                        </Array>
                        <mxPoint x="210" y="240" as="sourcePoint"/>
                        <mxPoint x="381.8800000000001" y="163.28750000000014" as="targetPoint"/>
                    </mxGeometry>
                </mxCell>
                <mxCell id="GoKNf1hH-Z8f_osksqzi-59" value="" style="html=1;jettySize=18;whiteSpace=wrap;fontSize=11;strokeColor=#000000;strokeOpacity=100;strokeWidth=4;rounded=1;arcSize=12;edgeStyle=orthogonalEdgeStyle;startArrow=none;endArrow=classic;endFill=1;exitX=1;exitY=0.75;lucidId=YW3KdxEAY-yI;movable=1;resizable=1;rotatable=1;deletable=1;editable=1;locked=0;connectable=1;exitDx=0;exitDy=0;opacity=70;align=center;verticalAlign=middle;fontFamily=Helvetica;fontColor=#000000;labelBackgroundColor=default;curved=1;entryX=0;entryY=0.5;entryDx=0;entryDy=0;entryPerimeter=0;" parent="em2XX1OPzqwU3cxCynbA-2" source="GoKNf1hH-Z8f_osksqzi-57" edge="1" target="GoKNf1hH-Z8f_osksqzi-56">
                    <mxGeometry width="100" height="100" relative="1" as="geometry">
                        <Array as="points">
                            <mxPoint x="290" y="283"/>
                            <mxPoint x="290" y="350"/>
                            <mxPoint x="620" y="350"/>
                        </Array>
                        <mxPoint x="214.99999999999977" y="255" as="sourcePoint"/>
                        <mxPoint x="620" y="322" as="targetPoint"/>
                    </mxGeometry>
                </mxCell>
                <mxCell id="GoKNf1hH-Z8f_osksqzi-60" value="Database" style="html=1;overflow=block;blockSpacing=1;whiteSpace=wrap;shape=cylinder3;size=4;anchorPointDirection=0;boundedLbl=1;fontSize=18;spacing=9;strokeColor=#000000;rounded=1;absoluteArcSize=1;arcSize=9;fillColor=#FFFFFF;strokeWidth=2;lucidId=YW3Kp418ABGM;fontColor=#000000;movable=1;resizable=1;rotatable=1;deletable=1;editable=1;locked=0;connectable=1;align=center;verticalAlign=middle;fontFamily=Helvetica;fontStyle=1;" parent="em2XX1OPzqwU3cxCynbA-2" vertex="1">
                    <mxGeometry x="647.5" y="95.88" width="95" height="120" as="geometry"/>
                </mxCell>
                <mxCell id="em2XX1OPzqwU3cxCynbA-6" value="" style="endArrow=classic;html=1;rounded=1;opacity=70;strokeColor=#000000;strokeWidth=4;align=center;verticalAlign=middle;arcSize=12;fontFamily=Helvetica;fontSize=11;fontColor=#000000;labelBackgroundColor=default;resizable=1;startArrow=none;endFill=1;curved=0;" parent="em2XX1OPzqwU3cxCynbA-2" edge="1">
                    <mxGeometry width="50" height="50" relative="1" as="geometry">
                        <mxPoint x="5" y="261" as="sourcePoint"/>
                        <mxPoint x="90" y="260.61" as="targetPoint"/>
                    </mxGeometry>
                </mxCell>
                <mxCell id="GoKNf1hH-Z8f_osksqzi-55" value="&lt;i&gt;command: &lt;/i&gt;&lt;br&gt;&lt;div&gt;start next&amp;nbsp;&lt;/div&gt;&lt;div&gt;process&lt;/div&gt;" style="html=1;overflow=block;blockSpacing=1;whiteSpace=wrap;ellipse;shape=cloud;fontSize=18;spacing=9;strokeColor=#000000;strokeOpacity=100;fillOpacity=100;rounded=1;absoluteArcSize=1;arcSize=9;fillColor=#FFFFFF;strokeWidth=2;lucidId=YW3K_GFCVog0;movable=1;resizable=1;rotatable=1;deletable=1;editable=1;locked=0;connectable=1;align=center;verticalAlign=middle;fontFamily=Helvetica;fontColor=#000000;fontStyle=1;" parent="em2XX1OPzqwU3cxCynbA-2" vertex="1">
                    <mxGeometry x="330" y="247" width="227.5" height="164" as="geometry"/>
                </mxCell>
                <mxCell id="GoKNf1hH-Z8f_osksqzi-54" value="&lt;i&gt;Transaction:&lt;/i&gt;&lt;br&gt;record_1 &amp;amp;&lt;br&gt;record_2" style="html=1;overflow=block;blockSpacing=1;whiteSpace=wrap;ellipse;shape=cloud;fontSize=18;spacing=9;strokeColor=#000000;strokeOpacity=100;fillOpacity=100;rounded=1;absoluteArcSize=1;arcSize=9;fillColor=#FFFFFF;strokeWidth=2;lucidId=YW3KfiS4kU.2;movable=1;resizable=1;rotatable=1;deletable=1;editable=1;locked=0;connectable=1;align=center;verticalAlign=middle;fontFamily=Helvetica;fontColor=#000000;fontStyle=1;" parent="em2XX1OPzqwU3cxCynbA-2" vertex="1">
                    <mxGeometry x="326.25" y="76.76" width="235" height="158.24" as="geometry"/>
                </mxCell>
                <mxCell id="GoKNf1hH-Z8f_osksqzi-77" value="Untitled Layer" style="" parent="0"/>
            </root>
        </mxGraphModel>
    </diagram>
</mxfile>